<svg xmlns="http://www.w3.org/2000/svg" viewBox="0 0 920 680">
  <defs>
    <linearGradient id="bgGradient" x1="0%" y1="0%" x2="100%" y2="100%">
      <stop offset="0%" style="stop-color:#1a1a2e;stop-opacity:1"/>
      <stop offset="100%" style="stop-color:#16213e;stop-opacity:1"/>
    </linearGradient>
  </defs>
  <rect width="920" height="680" fill="url(#bgGradient)"/>

  <circle cx="50" cy="80" r="2" fill="#ffffff" opacity="0.6"/>
  <circle cx="150" cy="150" r="1.5" fill="#ffffff" opacity="0.4"/>
  <circle cx="870" cy="100" r="2" fill="#ffffff" opacity="0.5"/>
  <circle cx="800" cy="200" r="1.5" fill="#ffffff" opacity="0.4"/>
  <circle cx="100" cy="600" r="2" fill="#ffffff" opacity="0.5"/>
  <circle cx="820" cy="580" r="1.5" fill="#ffffff" opacity="0.6"/>
  <circle cx="700" cy="50" r="1" fill="#ffffff" opacity="0.4"/>
  <circle cx="200" cy="400" r="1.5" fill="#ffffff" opacity="0.3"/>

  <circle cx="460" cy="200" r="80" fill="#ffffff" opacity="0.1"/>
  <circle cx="460" cy="200" r="60" fill="#24292f"/>
  <circle cx="440" cy="185" r="10" fill="#ffffff"/>
  <circle cx="480" cy="185" r="10" fill="#ffffff"/>
  <ellipse cx="460" cy="215" rx="20" ry="10" fill="#ffffff" opacity="0.3"/>

  <text x="460" y="340" text-anchor="middle" font-family="system-ui, -apple-system, sans-serif" font-size="48" font-weight="700" fill="#ffffff">GitHub PR Quick Actions</text>

  <text x="460" y="390" text-anchor="middle" font-family="system-ui, -apple-system, sans-serif" font-size="24" fill="#8b949e">Review, Merge, and Manage PRs Faster</text>

  <rect x="260" y="450" rx="8" ry="8" width="120" height="40" fill="#1f883d"/>
  <text x="320" y="477" text-anchor="middle" font-family="system-ui, sans-serif" font-size="16" font-weight="500" fill="#ffffff">Review</text>

  <rect x="400" y="450" rx="8" ry="8" width="120" height="40" fill="#6e7681"/>
  <text x="460" y="477" text-anchor="middle" font-family="system-ui, sans-serif" font-size="16" font-weight="500" fill="#ffffff">Actions</text>

  <rect x="540" y="450" rx="8" ry="8" width="120" height="40" fill="#8250df"/>
  <text x="600" y="477" text-anchor="middle" font-family="system-ui, sans-serif" font-size="16" font-weight="500" fill="#ffffff">Squash</text>

  <text x="460" y="580" text-anchor="middle" font-family="system-ui, -apple-system, sans-serif" font-size="18" fill="#58a6ff">One-click approvals - Auto-merge - Squash and merge</text>
</svg>
