<svg xmlns="http://www.w3.org/2000/svg" viewBox="0 0 1400 560">
  <defs>
    <linearGradient id="bgGradient" x1="0%" y1="0%" x2="100%" y2="100%">
      <stop offset="0%" style="stop-color:#1a1a2e;stop-opacity:1"/>
      <stop offset="100%" style="stop-color:#16213e;stop-opacity:1"/>
    </linearGradient>
  </defs>
  <rect width="1400" height="560" fill="url(#bgGradient)"/>

  <circle cx="50" cy="60" r="2" fill="#ffffff" opacity="0.6"/>
  <circle cx="150" cy="120" r="1.5" fill="#ffffff" opacity="0.4"/>
  <circle cx="1350" cy="80" r="2" fill="#ffffff" opacity="0.5"/>
  <circle cx="1250" cy="160" r="1.5" fill="#ffffff" opacity="0.4"/>
  <circle cx="100" cy="480" r="2" fill="#ffffff" opacity="0.5"/>
  <circle cx="1300" cy="460" r="1.5" fill="#ffffff" opacity="0.6"/>
  <circle cx="700" cy="40" r="1" fill="#ffffff" opacity="0.4"/>

  <circle cx="250" cy="280" r="100" fill="#ffffff" opacity="0.1"/>
  <circle cx="250" cy="280" r="75" fill="#24292f"/>
  <circle cx="225" cy="260" r="12" fill="#ffffff"/>
  <circle cx="275" cy="260" r="12" fill="#ffffff"/>
  <ellipse cx="250" cy="300" rx="25" ry="12" fill="#ffffff" opacity="0.3"/>

  <text x="800" y="220" text-anchor="middle" font-family="system-ui, -apple-system, sans-serif" font-size="56" font-weight="700" fill="#ffffff">GitHub PR Quick Actions</text>

  <text x="800" y="280" text-anchor="middle" font-family="system-ui, -apple-system, sans-serif" font-size="28" fill="#8b949e">Review, Merge, and Manage PRs Faster</text>

  <rect x="520" y="340" rx="8" ry="8" width="140" height="50" fill="#1f883d"/>
  <text x="590" y="373" text-anchor="middle" font-family="system-ui, sans-serif" font-size="20" font-weight="500" fill="#ffffff">Review</text>

  <rect x="680" y="340" rx="8" ry="8" width="140" height="50" fill="#6e7681"/>
  <text x="750" y="373" text-anchor="middle" font-family="system-ui, sans-serif" font-size="20" font-weight="500" fill="#ffffff">Actions</text>

  <rect x="840" y="340" rx="8" ry="8" width="140" height="50" fill="#8250df"/>
  <text x="910" y="373" text-anchor="middle" font-family="system-ui, sans-serif" font-size="20" font-weight="500" fill="#ffffff">Squash</text>

  <text x="800" y="480" text-anchor="middle" font-family="system-ui, -apple-system, sans-serif" font-size="22" fill="#58a6ff">One-click approvals - Auto-merge - Squash and merge</text>
</svg>
