<svg xmlns="http://www.w3.org/2000/svg" viewBox="0 0 128 128">
  <!-- Background circle (space) -->
  <circle cx="64" cy="64" r="64" fill="#1a1a2e"/>

  <!-- Stars -->
  <circle cx="20" cy="25" r="1.5" fill="#ffffff"/>
  <circle cx="108" cy="20" r="1" fill="#ffffff"/>
  <circle cx="95" cy="45" r="1.5" fill="#ffffff"/>
  <circle cx="15" cy="55" r="1" fill="#ffffff"/>
  <circle cx="30" cy="80" r="1" fill="#ffffff"/>
  <circle cx="100" cy="75" r="1.5" fill="#ffffff"/>
  <circle cx="45" cy="15" r="1" fill="#ffffff"/>
  <circle cx="75" cy="25" r="1" fill="#ffffff"/>

  <!-- Moon surface -->
  <ellipse cx="64" cy="105" rx="55" ry="25" fill="#c9c9c9"/>
  <ellipse cx="64" cy="105" rx="55" ry="25" fill="url(#moonGradient)"/>

  <!-- Moon craters -->
  <ellipse cx="40" cy="100" rx="8" ry="4" fill="#a0a0a0"/>
  <ellipse cx="75" cy="108" rx="6" ry="3" fill="#a0a0a0"/>
  <ellipse cx="55" cy="112" rx="5" ry="2.5" fill="#a0a0a0"/>
  <ellipse cx="90" cy="102" rx="7" ry="3" fill="#a0a0a0"/>

  <!-- Rocket body -->
  <path d="M64 25 L74 70 L64 65 L54 70 Z" fill="#e8e8e8"/>
  <path d="M64 25 L64 65 L54 70 Z" fill="#d0d0d0"/>

  <!-- Rocket nose cone -->
  <path d="M64 25 L70 40 L64 38 L58 40 Z" fill="#cf222e"/>
  <path d="M64 25 L64 38 L58 40 Z" fill="#a01a24"/>

  <!-- Rocket window -->
  <circle cx="64" cy="48" r="6" fill="#1a1a2e"/>
  <circle cx="64" cy="48" r="4" fill="#4a90d9"/>
  <circle cx="62" cy="46" r="1.5" fill="#ffffff" opacity="0.6"/>

  <!-- Rocket fins -->
  <path d="M54 70 L44 85 L54 75 Z" fill="#cf222e"/>
  <path d="M74 70 L84 85 L74 75 Z" fill="#cf222e"/>
  <path d="M54 70 L44 85 L54 75 Z" fill="#a01a24" opacity="0.5"/>

  <!-- Rocket flame -->
  <path d="M58 75 L64 95 L70 75 Z" fill="#ffa500"/>
  <path d="M60 75 L64 88 L68 75 Z" fill="#ffcc00"/>
  <path d="M62 75 L64 82 L66 75 Z" fill="#ffffff"/>

  <!-- Gradient definitions -->
  <defs>
    <linearGradient id="moonGradient" x1="0%" y1="0%" x2="0%" y2="100%">
      <stop offset="0%" style="stop-color:#e0e0e0;stop-opacity:1"/>
      <stop offset="100%" style="stop-color:#a0a0a0;stop-opacity:1"/>
    </linearGradient>
  </defs>
</svg>
